<svg width="32" height="32" xmlns="http://www.w3.org/2000/svg">
  <defs>
    <linearGradient id="orangeGrad" x1="0%" y1="0%" x2="100%" y2="100%">
      <stop offset="0%" style="stop-color:#FFB84D;stop-opacity:1" />
      <stop offset="100%" style="stop-color:#E6851F;stop-opacity:1" />
    </linearGradient>
    <radialGradient id="redGrad" cx="50%" cy="50%" r="50%">
      <stop offset="0%" style="stop-color:#FF4444;stop-opacity:1" />
      <stop offset="100%" style="stop-color:#CC0000;stop-opacity:1" />
    </radialGradient>
  </defs>
  
  <!-- Geometric background inspired by the logo -->
  <polygon points="2,8 12,6 16,14 12,22 6,24 2,16" fill="url(#orangeGrad)" opacity="0.9"/>
  <circle cx="10" cy="15" r="6" fill="url(#redGrad)" opacity="0.8"/>
  <polygon points="8,12 14,11 16,16 12,20 8,21 6,16" fill="#4CAF50" opacity="0.6"/>
  
  <!-- Simplified Dubai skyline -->
  <g transform="translate(6,20)">
    <rect x="8" y="2" width="1" height="8" fill="#2C2C2C"/>
    <polygon points="8.5,2 8.5,0.5" fill="#2C2C2C"/>
    <rect x="6" y="4" width="1.5" height="6" fill="#3C3C3C"/>
    <rect x="4" y="5" width="1" height="5" fill="#2C2C2C"/>
    <rect x="10" y="3" width="1" height="7" fill="#3C3C3C"/>
    <rect x="12" y="5" width="0.8" height="5" fill="#2C2C2C"/>
    <rect x="14" y="6" width="1" height="4" fill="#3C3C3C"/>
  </g>
</svg>